<html>
<body>
<svg width="6336" height="8673" style= " background-color:white">
<line x1="0" y1="8162" x2="728" y2="8162" stroke="white" stroke-width="1" />
<line x1="728" y1="8162" x2="1512" y2="8162" stroke="white" stroke-width="1" />
<line x1="1512" y1="8120" x2="2310" y2="8120" stroke="white" stroke-width="1" />
<line x1="2310" y1="8106" x2="3108" y2="8106" stroke="white" stroke-width="1" />
<line x1="3108" y1="8148" x2="3724" y2="8148" stroke="white" stroke-width="1" />
<line x1="3724" y1="7994" x2="4396" y2="7994" stroke="white" stroke-width="1" />
<line x1="4396" y1="7784" x2="4774" y2="7784" stroke="white" stroke-width="1" />
<line x1="4774" y1="7224" x2="4970" y2="7224" stroke="white" stroke-width="1" />
<line x1="4970" y1="6832" x2="5250" y2="6832" stroke="white" stroke-width="1" />
<line x1="5250" y1="5922" x2="5306" y2="5922" stroke="white" stroke-width="1" />
<rect x="0" y="0" width="3234" height="1708" fill="rgba(256,0,0,0.4)" stroke-opacity="0" stroke-width="0" />
<text x="1617" y="854" fill="black" font-size="20" text-anchor="middle" alignment-baseline="middle">0</text>
<rect x="0" y="1708" width="3080" height="1610" fill="rgba(256,0,0,0.4)" stroke-opacity="0" stroke-width="0" />
<text x="1540" y="2513" fill="black" font-size="20" text-anchor="middle" alignment-baseline="middle">1</text>
<rect x="3080" y="1708" width="2184" height="1008" fill="rgba(256,0,0,0.4)" stroke-opacity="0" stroke-width="0" />
<text x="4172" y="2212" fill="black" font-size="20" text-anchor="middle" alignment-baseline="middle">2</text>
<rect x="0" y="3318" width="1890" height="952" fill="rgba(256,0,0,0.4)" stroke-opacity="0" stroke-width="0" />
<text x="945" y="3794" fill="black" font-size="20" text-anchor="middle" alignment-baseline="middle">3</text>
<rect x="1890" y="3318" width="1862" height="882" fill="rgba(256,0,0,0.4)" stroke-opacity="0" stroke-width="0" />
<text x="2821" y="3759" fill="black" font-size="20" text-anchor="middle" alignment-baseline="middle">4</text>
<rect x="3752" y="2716" width="1554" height="672" fill="rgba(256,0,0,0.4)" stroke-opacity="0" stroke-width="0" />
<text x="4529" y="3052" fill="black" font-size="20" text-anchor="middle" alignment-baseline="middle">5</text>
<rect x="0" y="4270" width="1302" height="728" fill="rgba(256,0,0,0.4)" stroke-opacity="0" stroke-width="0" />
<text x="651" y="4634" fill="black" font-size="20" text-anchor="middle" alignment-baseline="middle">6</text>
<rect x="1302" y="4270" width="1302" height="728" fill="rgba(256,0,0,0.4)" stroke-opacity="0" stroke-width="0" />
<text x="1953" y="4634" fill="black" font-size="20" text-anchor="middle" alignment-baseline="middle">7</text>
<rect x="2604" y="4200" width="1302" height="630" fill="rgba(256,0,0,0.4)" stroke-opacity="0" stroke-width="0" />
<text x="3255" y="4515" fill="black" font-size="20" text-anchor="middle" alignment-baseline="middle">8</text>
<rect x="3906" y="3388" width="1246" height="644" fill="rgba(256,0,0,0.4)" stroke-opacity="0" stroke-width="0" />
<text x="4529" y="3710" fill="black" font-size="20" text-anchor="middle" alignment-baseline="middle">9</text>
<rect x="0" y="4998" width="1162" height="672" fill="rgba(256,0,0,0.4)" stroke-opacity="0" stroke-width="0" />
<text x="581" y="5334" fill="black" font-size="20" text-anchor="middle" alignment-baseline="middle">10</text>
<rect x="1162" y="4998" width="1386" height="532" fill="rgba(256,0,0,0.4)" stroke-opacity="0" stroke-width="0" />
<text x="1855" y="5264" fill="black" font-size="20" text-anchor="middle" alignment-baseline="middle">11</text>
<rect x="2548" y="4998" width="1218" height="560" fill="rgba(256,0,0,0.4)" stroke-opacity="0" stroke-width="0" />
<text x="3157" y="5278" fill="black" font-size="20" text-anchor="middle" alignment-baseline="middle">12</text>
<rect x="3766" y="4830" width="1148" height="560" fill="rgba(256,0,0,0.4)" stroke-opacity="0" stroke-width="0" />
<text x="4340" y="5110" fill="black" font-size="20" text-anchor="middle" alignment-baseline="middle">13</text>
<rect x="0" y="5670" width="1204" height="504" fill="rgba(256,0,0,0.4)" stroke-opacity="0" stroke-width="0" />
<text x="602" y="5922" fill="black" font-size="20" text-anchor="middle" alignment-baseline="middle">14</text>
<rect x="1204" y="5530" width="1134" height="490" fill="rgba(256,0,0,0.4)" stroke-opacity="0" stroke-width="0" />
<text x="1771" y="5775" fill="black" font-size="20" text-anchor="middle" alignment-baseline="middle">15</text>
<rect x="2338" y="5558" width="1064" height="518" fill="rgba(256,0,0,0.4)" stroke-opacity="0" stroke-width="0" />
<text x="2870" y="5817" fill="black" font-size="20" text-anchor="middle" alignment-baseline="middle">16</text>
<rect x="3402" y="5558" width="994" height="490" fill="rgba(256,0,0,0.4)" stroke-opacity="0" stroke-width="0" />
<text x="3899" y="5803" fill="black" font-size="20" text-anchor="middle" alignment-baseline="middle">17</text>
<rect x="4396" y="5390" width="910" height="532" fill="rgba(256,0,0,0.4)" stroke-opacity="0" stroke-width="0" />
<text x="4851" y="5656" fill="black" font-size="20" text-anchor="middle" alignment-baseline="middle">18</text>
<rect x="0" y="6174" width="980" height="462" fill="rgba(256,0,0,0.4)" stroke-opacity="0" stroke-width="0" />
<text x="490" y="6405" fill="black" font-size="20" text-anchor="middle" alignment-baseline="middle">19</text>
<rect x="980" y="6174" width="994" height="448" fill="rgba(256,0,0,0.4)" stroke-opacity="0" stroke-width="0" />
<text x="1477" y="6398" fill="black" font-size="20" text-anchor="middle" alignment-baseline="middle">20</text>
<rect x="1974" y="6076" width="966" height="448" fill="rgba(256,0,0,0.4)" stroke-opacity="0" stroke-width="0" />
<text x="2457" y="6300" fill="black" font-size="20" text-anchor="middle" alignment-baseline="middle">21</text>
<rect x="2940" y="6076" width="1078" height="392" fill="rgba(256,0,0,0.4)" stroke-opacity="0" stroke-width="0" />
<text x="3479" y="6272" fill="black" font-size="20" text-anchor="middle" alignment-baseline="middle">22</text>
<rect x="4018" y="6048" width="1050" height="392" fill="rgba(256,0,0,0.4)" stroke-opacity="0" stroke-width="0" />
<text x="4543" y="6244" fill="black" font-size="20" text-anchor="middle" alignment-baseline="middle">23</text>
<rect x="0" y="6636" width="924" height="406" fill="rgba(256,0,0,0.4)" stroke-opacity="0" stroke-width="0" />
<text x="462" y="6839" fill="black" font-size="20" text-anchor="middle" alignment-baseline="middle">24</text>
<rect x="924" y="6636" width="812" height="434" fill="rgba(256,0,0,0.4)" stroke-opacity="0" stroke-width="0" />
<text x="1330" y="6853" fill="black" font-size="20" text-anchor="middle" alignment-baseline="middle">25</text>
<rect x="1736" y="6622" width="952" height="364" fill="rgba(256,0,0,0.4)" stroke-opacity="0" stroke-width="0" />
<text x="2212" y="6804" fill="black" font-size="20" text-anchor="middle" alignment-baseline="middle">26</text>
<rect x="2688" y="6524" width="840" height="406" fill="rgba(256,0,0,0.4)" stroke-opacity="0" stroke-width="0" />
<text x="3108" y="6727" fill="black" font-size="20" text-anchor="middle" alignment-baseline="middle">27</text>
<rect x="3528" y="6468" width="868" height="392" fill="rgba(256,0,0,0.4)" stroke-opacity="0" stroke-width="0" />
<text x="3962" y="6664" fill="black" font-size="20" text-anchor="middle" alignment-baseline="middle">28</text>
<rect x="4396" y="6440" width="854" height="392" fill="rgba(256,0,0,0.4)" stroke-opacity="0" stroke-width="0" />
<text x="4823" y="6636" fill="black" font-size="20" text-anchor="middle" alignment-baseline="middle">29</text>
<rect x="0" y="7042" width="798" height="406" fill="rgba(256,0,0,0.4)" stroke-opacity="0" stroke-width="0" />
<text x="399" y="7245" fill="black" font-size="20" text-anchor="middle" alignment-baseline="middle">30</text>
<rect x="798" y="7070" width="826" height="392" fill="rgba(256,0,0,0.4)" stroke-opacity="0" stroke-width="0" />
<text x="1211" y="7266" fill="black" font-size="20" text-anchor="middle" alignment-baseline="middle">31</text>
<rect x="1624" y="7070" width="826" height="392" fill="rgba(256,0,0,0.4)" stroke-opacity="0" stroke-width="0" />
<text x="2037" y="7266" fill="black" font-size="20" text-anchor="middle" alignment-baseline="middle">32</text>
<rect x="2450" y="6986" width="826" height="378" fill="rgba(256,0,0,0.4)" stroke-opacity="0" stroke-width="0" />
<text x="2863" y="7175" fill="black" font-size="20" text-anchor="middle" alignment-baseline="middle">33</text>
<rect x="3276" y="6930" width="854" height="364" fill="rgba(256,0,0,0.4)" stroke-opacity="0" stroke-width="0" />
<text x="3703" y="7112" fill="black" font-size="20" text-anchor="middle" alignment-baseline="middle">34</text>
<rect x="4130" y="6860" width="840" height="364" fill="rgba(256,0,0,0.4)" stroke-opacity="0" stroke-width="0" />
<text x="4550" y="7042" fill="black" font-size="20" text-anchor="middle" alignment-baseline="middle">35</text>
<rect x="0" y="7462" width="868" height="350" fill="rgba(256,0,0,0.4)" stroke-opacity="0" stroke-width="0" />
<text x="434" y="7637" fill="black" font-size="20" text-anchor="middle" alignment-baseline="middle">36</text>
<rect x="868" y="7462" width="784" height="378" fill="rgba(256,0,0,0.4)" stroke-opacity="0" stroke-width="0" />
<text x="1260" y="7651" fill="black" font-size="20" text-anchor="middle" alignment-baseline="middle">37</text>
<rect x="1652" y="7462" width="756" height="392" fill="rgba(256,0,0,0.4)" stroke-opacity="0" stroke-width="0" />
<text x="2030" y="7658" fill="black" font-size="20" text-anchor="middle" alignment-baseline="middle">38</text>
<rect x="2408" y="7462" width="742" height="392" fill="rgba(256,0,0,0.4)" stroke-opacity="0" stroke-width="0" />
<text x="2779" y="7658" fill="black" font-size="20" text-anchor="middle" alignment-baseline="middle">39</text>
<rect x="3150" y="7364" width="784" height="364" fill="rgba(256,0,0,0.4)" stroke-opacity="0" stroke-width="0" />
<text x="3542" y="7546" fill="black" font-size="20" text-anchor="middle" alignment-baseline="middle">40</text>
<rect x="3934" y="7294" width="798" height="322" fill="rgba(256,0,0,0.4)" stroke-opacity="0" stroke-width="0" />
<text x="4333" y="7455" fill="black" font-size="20" text-anchor="middle" alignment-baseline="middle">41</text>
<rect x="0" y="7812" width="728" height="350" fill="rgba(256,0,0,0.4)" stroke-opacity="0" stroke-width="0" />
<text x="364" y="7987" fill="black" font-size="20" text-anchor="middle" alignment-baseline="middle">42</text>
<rect x="728" y="7840" width="784" height="322" fill="rgba(256,0,0,0.4)" stroke-opacity="0" stroke-width="0" />
<text x="1120" y="8001" fill="black" font-size="20" text-anchor="middle" alignment-baseline="middle">43</text>
<rect x="1512" y="7854" width="798" height="266" fill="rgba(256,0,0,0.4)" stroke-opacity="0" stroke-width="0" />
<text x="1911" y="7987" fill="black" font-size="20" text-anchor="middle" alignment-baseline="middle">44</text>
<rect x="2310" y="7854" width="798" height="252" fill="rgba(256,0,0,0.4)" stroke-opacity="0" stroke-width="0" />
<text x="2709" y="7980" fill="black" font-size="20" text-anchor="middle" alignment-baseline="middle">45</text>
<rect x="3108" y="7854" width="616" height="294" fill="rgba(256,0,0,0.4)" stroke-opacity="0" stroke-width="0" />
<text x="3416" y="8001" fill="black" font-size="20" text-anchor="middle" alignment-baseline="middle">46</text>
<rect x="3724" y="7728" width="672" height="266" fill="rgba(256,0,0,0.4)" stroke-opacity="0" stroke-width="0" />
<text x="4060" y="7861" fill="black" font-size="20" text-anchor="middle" alignment-baseline="middle">47</text>
<rect x="4396" y="7616" width="378" height="168" fill="rgba(256,0,0,0.4)" stroke-opacity="0" stroke-width="0" />
<text x="4585" y="7700" fill="black" font-size="20" text-anchor="middle" alignment-baseline="middle">48</text>
<rect x="0" y="0" width="5336" height="7673" fill="rgba(0,0,0,0)" stroke-opacity="1" stroke-width="10" stroke="black" />
</svg>
